<svg version="1.2" baseProfile="tiny-ps" xmlns="http://www.w3.org/2000/svg" viewBox="0 0 708 868" width="708" height="868">
	<title>Modern cute chatbot in different poses flat illustration set-ai</title>
	<style>
		tspan { white-space:pre }
		.shp0 { fill: #5fbbe8 } 
		.shp1 { fill: #5faede } 
		.shp2 { fill: #b1eced } 
		.shp3 { fill: #294f81 } 
		.shp4 { fill: #33487a } 
		.shp5 { fill: #296abd } 
		.shp6 { fill: #46aed2 } 
		.shp7 { fill: #caeff9 } 
		.shp8 { fill: #f6b35b } 
		.shp9 { fill: #ea4754 } 
		.shp10 { fill: #92ef9a } 
		.shp11 { fill: #c9eaff } 
	</style>
	<g id="Layer 2">
		<g id="&lt;Group&gt;">
			<g id="&lt;Group&gt;">
				<path id="&lt;Path&gt;" class="shp0" d="M151.83 440.84C144.83 459.84 122.42 453.68 93.57 435.6C59.13 414 14.78 348.43 31.72 302.96C31.72 302.95 31.72 302.94 31.72 302.94C33.27 298.8 35.31 294.84 37.93 291.07C69.24 246.03 151.68 393.58 153.71 416.27C154.66 427.02 153.95 435.09 151.83 440.84Z" />
				<path id="&lt;Path&gt;" class="shp1" d="M151.83 440.84C144.83 459.84 122.42 453.68 93.57 435.6C59.13 414 14.78 348.43 31.72 302.96C42.6 345.43 72.27 415.17 151.83 440.84Z" />
				<path id="&lt;Path&gt;" class="shp2" d="M84.11 316.51C91.55 327.08 102.2 345.72 98.75 348.54C95.22 351.43 76.9 337.89 65.57 320.11C57.83 307.96 51.92 291.6 55.28 289.39C59.08 286.89 74.41 302.72 84.11 316.51Z" />
			</g>
			<g id="&lt;Group&gt;">
				<path id="&lt;Path&gt;" class="shp0" d="M480.81 545.98C480.81 628.31 423.05 725.02 331.28 725.02C274.42 725.02 227.62 690.21 200.26 643.66C183.44 615.08 173.95 582.08 173.95 550C173.95 465.65 266.01 469.67 324.35 469.67C388.34 469.67 464.29 464.77 478.46 524.36C480.01 530.78 480.81 537.97 480.81 545.98Z" />
				<path id="&lt;Path&gt;" class="shp1" d="M480.81 545.98C480.81 628.31 423.05 725.02 331.28 725.02C274.42 725.02 227.62 690.21 200.26 643.66C257.25 670.49 419.6 726.05 478.46 524.36C480.01 530.78 480.81 537.97 480.81 545.98Z" />
				<path id="&lt;Path&gt;" class="shp2" d="M205.73 517.3C193.81 536.73 202.24 564.4 222.71 575.25C244.35 586.73 273.78 576.44 281.83 553.63C289.47 531.95 274.74 507.66 253.64 500.85C236.72 495.38 215.64 501.14 205.73 517.3Z" />
			</g>
			<g id="&lt;Group&gt;">
				<path id="&lt;Path&gt;" class="shp0" d="M584.95 485.25C552.67 505.02 528.48 510.15 524.95 482.53C524.34 477.79 524.34 472.07 525.01 465.31C527.28 442.63 611.25 295.96 642.1 341.33C650.07 353.06 652.62 366.78 651.39 381.1C647.82 422.18 613.01 468.08 584.95 485.25Z" />
				<path id="&lt;Path&gt;" class="shp1" d="M584.95 485.25C552.67 505.02 528.48 510.15 524.95 482.53C546.16 478.5 588.84 459.5 651.39 381.1C647.82 422.18 613.01 468.08 584.95 485.25Z" />
				<path id="&lt;Path&gt;" class="shp2" d="M590.43 393.69C576.18 414.97 550.01 449.87 545.96 447.32C542.31 445.01 556.16 411.92 578.97 384.2C591.67 368.77 608.47 353.39 611.07 355.46C614.29 358.04 594.86 387.07 590.43 393.69Z" />
			</g>
			<g id="&lt;Group&gt;">
				<path id="&lt;Path&gt;" class="shp0" d="M209.18 255.92C205.2 249.37 202.6 242.29 201.36 235.08C198.49 218.51 202.73 201.25 213.65 188.15C224.73 174.86 241.3 167.52 258.49 167.63C263.35 167.65 268.27 168.27 273.12 169.53C270.2 213.62 248.89 242.42 209.18 255.92Z" />
				<path id="&lt;Path&gt;" class="shp1" d="M209.18 255.92C205.2 249.37 202.6 242.29 201.36 235.08C210.59 225.36 220.03 214.92 229.56 203.73C240.06 191.41 249.68 179.32 258.49 167.63C263.35 167.65 268.27 168.27 273.12 169.53C251.81 198.33 230.49 227.13 209.18 255.92Z" />
				<path id="&lt;Path&gt;" class="shp0" d="M506.9 396.33C481.84 474.18 293.75 456.01 220.45 387.37C200.09 368.3 188.59 345.32 191.9 319.44C207.12 200.37 309.74 113.01 397.87 134.52C429.82 142.32 464.35 163.71 488.81 198.38C520.16 242.78 535.03 308.98 506.9 396.33Z" />
				<path id="&lt;Path&gt;" class="shp3" d="M478.48 308.06C475.02 322.24 455.43 326.71 431.67 326.4C406.64 326.08 376.97 320.47 356.62 315.32C327.48 307.94 272.28 289.68 256 268.23C252.18 263.2 250.5 257.99 251.79 252.72C255.54 237.37 266.11 225.21 280.17 217.97C294.23 210.74 311.78 208.44 329.5 212.76L427.93 236.79C448.52 241.81 464.79 254.7 473.32 270.64C479.48 282.13 481.62 295.2 478.48 308.06Z" />
				<path id="&lt;Path&gt;" class="shp4" d="M478.48 308.06C475.02 322.24 455.43 326.71 431.67 326.4C406.64 326.08 376.97 320.47 356.62 315.32C327.48 307.94 272.28 289.68 256 268.23C314.2 280.79 414.56 296.33 473.32 270.64C479.48 282.13 481.62 295.2 478.48 308.06Z" />
				<path id="&lt;Path&gt;" class="shp1" d="M506.9 396.33C481.84 474.18 293.75 456.01 220.45 387.37C270.28 408.66 420.24 465.32 466.23 397.63C505.78 339.43 497.07 246.75 488.81 198.38C520.16 242.78 535.03 308.98 506.9 396.33Z" />
				<path id="&lt;Path&gt;" class="shp2" d="M277.28 187.71C280.46 195.05 312.5 189.13 335.37 179.6C357.29 170.46 381.53 153.52 378.83 146.4C376.44 140.07 353.23 142.59 338.08 146.44C304.18 155.06 273.81 179.71 277.28 187.71Z" />
				<path id="&lt;Path&gt;" class="shp2" d="M205.11 300.76C200.63 322.1 208.66 345.35 214.23 345.26C220.07 345.16 224.01 319.33 224.87 304.81C225.12 300.65 226.63 275.16 220.89 273.87C216.38 272.85 208.01 286.94 205.11 300.76Z" />
				<path id="&lt;Path&gt;" class="shp5" d="M385.65 233.38C385.47 235.35 371.5 236.69 357.86 234.67C335.74 231.38 317.59 219.69 318.47 217.36C318.87 216.3 332.58 219.5 359.99 225.96C382.01 231.15 385.75 232.34 385.65 233.38Z" />
				<g id="&lt;Group&gt;">
					<path id="&lt;Path&gt;" class="shp0" d="M211.6 198.69C211.14 198.09 200.21 183.8 197.09 160.35C194.23 138.89 197.65 105.35 230.2 67.46L236.89 73.2C212.61 101.48 202.14 130.25 205.77 158.72C208.48 179.96 218.47 193.15 218.57 193.28L211.6 198.69Z" />
					<path id="&lt;Path&gt;" class="shp3" d="M259.48 70.82C254.87 81.19 242.74 85.85 232.37 81.25C222.01 76.64 217.34 64.51 221.95 54.14C226.56 43.78 238.69 39.11 249.05 43.72C259.42 48.32 264.08 60.46 259.48 70.82Z" />
					<path id="&lt;Path&gt;" class="shp5" d="M229.59 53.67C228.15 59.58 231.78 65.54 237.7 66.98C243.61 68.42 249.57 64.79 251 58.87C252.44 52.96 248.81 47 242.9 45.56C236.99 44.13 231.03 47.76 229.59 53.67Z" />
				</g>
				<g id="&lt;Group&gt;">
					<path id="&lt;Path&gt;" class="shp3" d="M342.37 383.78C328.52 380.81 319.18 371.83 313.22 361.56C302.51 343.15 302.69 320.54 307.29 321.03C314.43 321.8 328.67 336.69 347.49 340.73C369.12 345.36 385.44 341.13 396.69 342.89C397.2 342.96 397.68 343.05 398.16 343.16C409.45 345.58 384.86 392.88 342.37 383.78Z" />
					<path id="&lt;Path&gt;" class="shp4" d="M342.37 383.78C328.52 380.81 319.18 371.83 313.22 361.56C332.74 362.23 371.66 360.97 396.69 342.89C397.2 342.96 397.68 343.05 398.16 343.16C409.45 345.58 384.86 392.88 342.37 383.78Z" />
				</g>
				<path id="&lt;Path&gt;" class="shp6" d="M264.41 254.52C266.82 251.88 269.86 249.95 273.03 248.34C276.23 246.77 279.65 245.63 283.18 244.88C290.24 243.42 297.73 243.64 304.78 245.44C311.83 247.25 318.43 250.56 323.98 254.98C329.52 259.41 334.21 264.76 337.29 271.13C330.88 268.17 325.13 265.11 319.32 262.59C313.56 259.99 307.81 257.95 301.97 256.42C296.12 254.93 290.16 254.03 283.96 253.73C277.74 253.44 271.37 253.67 264.41 254.52Z" />
				<path id="&lt;Path&gt;" class="shp6" d="M396.58 283.33C398.9 280.6 401.87 278.57 404.97 276.84C408.11 275.15 411.49 273.89 414.99 273.01C421.99 271.29 429.48 271.24 436.59 272.78C443.7 274.33 450.42 277.4 456.13 281.62C461.83 285.85 466.71 291.02 470.02 297.27C463.5 294.54 457.65 291.7 451.75 289.39C445.9 287.01 440.08 285.17 434.19 283.86C428.29 282.58 422.3 281.9 416.09 281.83C409.86 281.76 403.5 282.23 396.58 283.33Z" />
			</g>
			<path id="&lt;Path&gt;" class="shp7" d="M113.36 203.28C111.37 203.28 109.48 202.09 108.69 200.12C108.43 199.48 82.29 135.59 36.82 90.43C34.85 88.47 34.84 85.28 36.8 83.3C38.76 81.33 41.95 81.32 43.93 83.28C90.9 129.94 116.95 193.66 118.03 196.35C119.08 198.93 117.83 201.87 115.25 202.91C114.63 203.16 113.99 203.28 113.36 203.28Z" />
			<path id="&lt;Path&gt;" class="shp7" d="M164.61 139.48C162 139.48 159.8 137.47 159.59 134.83C159.54 134.14 153.9 65.34 124.18 8.56C122.89 6.09 123.84 3.05 126.31 1.76C128.77 0.47 131.82 1.42 133.11 3.89C163.81 62.54 169.42 131.16 169.64 134.05C169.86 136.82 167.78 139.25 165.01 139.46C164.87 139.47 164.74 139.48 164.61 139.48Z" />
			<path id="&lt;Path&gt;" class="shp7" d="M577.43 258.7C575.93 258.7 574.44 258.03 573.45 256.75C571.74 254.56 572.13 251.39 574.33 249.68C576.62 247.9 631.12 205.84 695.16 189.05C697.86 188.34 700.61 189.95 701.32 192.64C702.02 195.34 700.41 198.09 697.72 198.8C635.73 215.06 581.07 257.21 580.52 257.64C579.6 258.35 578.51 258.7 577.43 258.7Z" />
			<path id="&lt;Path&gt;" class="shp7" d="M565.09 177.8C564.1 177.8 563.11 177.51 562.23 176.91C559.94 175.33 559.36 172.19 560.94 169.9C562.58 167.51 601.86 110.97 657.84 75.63C660.2 74.14 663.31 74.84 664.8 77.2C666.28 79.55 665.58 82.66 663.22 84.15C609.03 118.36 569.64 175.04 569.24 175.61C568.27 177.03 566.69 177.8 565.09 177.8Z" />
			<path id="&lt;Path&gt;" class="shp8" d="M305.14 115.69L293.75 74.25L303.47 71.58L314.86 113.02L305.14 115.69Z" />
			<path id="&lt;Path&gt;" class="shp8" d="M581.28 474.33L571.25 473.33L575.53 430.57L585.56 431.57L581.28 474.33Z" />
			<path id="&lt;Path&gt;" class="shp8" d="M424.75 258.23L416.59 252.3L441.86 217.54L450.01 223.46L424.75 258.23Z" />
			<path id="&lt;Path&gt;" class="shp8" d="M125.44 398.05L117.29 392.12L142.55 357.36L150.71 363.28L125.44 398.05Z" />
			<path id="&lt;Path&gt;" class="shp9" d="M575.16 81.99L565.96 77.86L581.64 42.97L590.84 47.11L575.16 81.99Z" />
			<path id="&lt;Path&gt;" class="shp9" d="M625.85 355.05L616.66 350.91L632.34 316.03L641.53 320.16L625.85 355.05Z" />
			<path id="&lt;Path&gt;" class="shp9" d="M176.65 203.67L154.92 172.2L163.21 166.47L184.94 197.95L176.65 203.67Z" />
			<path id="&lt;Path&gt;" class="shp9" d="M221.24 451.51L199.5 420.04L207.8 414.31L229.53 445.78L221.24 451.51Z" />
			<path id="&lt;Path&gt;" class="shp10" d="M502.84 143.86L489.59 94.95L499.32 92.31L512.57 141.23L502.84 143.86Z" />
			<path id="&lt;Path&gt;" class="shp10" d="M509.47 422.52L496.22 373.61L505.94 370.97L519.2 419.88L509.47 422.52Z" />
			<path id="&lt;Path&gt;" class="shp10" d="M361.18 105.37L351.78 101.73L370.1 54.48L379.5 58.12L361.18 105.37Z" />
			<path id="&lt;Path&gt;" class="shp10" d="M116.91 358.12L107.51 354.48L125.82 307.22L135.22 310.87L116.91 358.12Z" />
			<path id="&lt;Path&gt;" class="shp11" d="M487.44 807.43C487.44 830.26 416.07 848.76 328.02 848.76C239.98 848.76 168.6 830.26 168.6 807.43C168.6 784.6 239.98 766.09 328.02 766.09C416.07 766.09 487.44 784.6 487.44 807.43Z" />
		</g>
	</g>
</svg>