<svg version="1.2" baseProfile="tiny-ps" xmlns="http://www.w3.org/2000/svg" viewBox="0 0 649 1168" width="649" height="1168">
	<title>Modern cute chatbot in different poses flat illustration set-ai</title>
	<style>
		tspan { white-space:pre }
		.shp0 { fill: #5fbbe8 } 
		.shp1 { fill: #5faede } 
		.shp2 { fill: #b1eced } 
		.shp3 { fill: #294f81 } 
		.shp4 { fill: #33487a } 
		.shp5 { fill: #393760 } 
		.shp6 { fill: #46aed2 } 
		.shp7 { fill: #2f4572 } 
		.shp8 { fill: #296abd } 
		.shp9 { fill: #d87f3b } 
		.shp10 { fill: #ffdb5e } 
		.shp11 { fill: #ffcf56 } 
		.shp12 { fill: #ff5e56 } 
		.shp13 { fill: #ffeade } 
		.shp14 { fill: #e2474c } 
		.shp15 { fill: #6d9f37 } 
		.shp16 { fill: #bb75cf } 
		.shp17 { fill: #b15bba } 
		.shp18 { fill: #f8ef57 } 
		.shp19 { fill: #c9eaff } 
	</style>
	<g id="Layer 2">
		<g id="&lt;Group&gt;">
			<g id="&lt;Group&gt;">
				<g id="&lt;Group&gt;">
					<path id="&lt;Path&gt;" class="shp0" d="M130.85 685.24C121.65 703.28 100.13 694.51 73.62 673.15C41.97 647.63 5.68 577.28 27.87 534.13C27.87 534.12 27.88 534.12 27.88 534.12C29.9 530.18 32.4 526.49 35.44 523.06C71.85 482.03 136.29 638.29 135.62 661.06C135.3 671.85 133.64 679.77 130.85 685.24Z" />
					<path id="&lt;Path&gt;" class="shp1" d="M130.85 685.24C121.65 703.28 100.13 694.51 73.62 673.15C41.97 647.63 5.68 577.28 27.87 534.13C33.65 577.58 54.88 650.35 130.85 685.24Z" />
					<path id="&lt;Path&gt;" class="shp2" d="M78.3 553.77C84.43 565.15 92.8 584.92 89.04 587.32C85.2 589.76 68.61 574.16 59.46 555.16C53.21 542.18 49.27 525.24 52.87 523.44C56.94 521.4 70.29 538.93 78.3 553.77Z" />
				</g>
				<g id="&lt;Group&gt;">
					<path id="&lt;Path&gt;" class="shp0" d="M485.81 861.72C485.81 944.05 428.05 1040.76 336.28 1040.76C279.42 1040.76 232.62 1005.94 205.26 959.4C188.44 930.82 178.95 897.82 178.95 865.74C178.95 781.39 271.01 785.41 329.35 785.41C393.34 785.41 469.29 780.51 483.46 840.09C485.01 846.52 485.81 853.7 485.81 861.72Z" />
					<path id="&lt;Path&gt;" class="shp1" d="M485.81 861.72C485.81 944.05 428.05 1040.76 336.28 1040.76C279.42 1040.76 232.62 1005.94 205.26 959.4C262.25 986.22 424.6 1041.79 483.46 840.09C485.01 846.52 485.81 853.7 485.81 861.72Z" />
					<path id="&lt;Path&gt;" class="shp2" d="M210.73 833.03C198.81 852.47 207.24 880.13 227.71 890.99C249.35 902.47 278.78 892.18 286.83 869.36C294.47 847.69 279.74 823.4 258.64 816.58C241.72 811.12 220.64 816.87 210.73 833.03Z" />
				</g>
				<g id="&lt;Group&gt;">
					<path id="&lt;Path&gt;" class="shp0" d="M591.65 662.82C565.42 690.11 543.32 701.2 532.91 675.37C531.13 670.94 529.68 665.41 528.62 658.7C525.07 636.18 569.18 473.03 610.51 509.11C621.18 518.44 627.13 531.08 629.56 545.24C636.51 585.88 614.45 639.11 591.65 662.82Z" />
					<path id="&lt;Path&gt;" class="shp1" d="M591.65 662.82C565.42 690.11 543.32 701.2 532.91 675.37C552.42 666.1 588.9 636.92 629.56 545.24C636.51 585.88 614.45 639.11 591.65 662.82Z" />
					<path id="&lt;Path&gt;" class="shp2" d="M573.77 572.85C565.38 597.04 548.89 637.44 544.33 635.99C540.21 634.68 545.24 599.16 560.28 566.58C568.66 548.42 581.03 529.29 584.06 530.64C587.83 532.32 576.38 565.32 573.77 572.85Z" />
				</g>
				<g id="&lt;Group&gt;">
					<path id="&lt;Path&gt;" class="shp0" d="M170.27 610.08C164.88 604.64 160.71 598.35 157.84 591.62C151.21 576.17 151.34 558.39 158.92 543.12C166.62 527.63 181.05 516.65 197.8 512.78C202.53 511.67 207.46 511.13 212.47 511.24C219.84 554.8 205.77 587.75 170.27 610.08Z" />
					<path id="&lt;Path&gt;" class="shp1" d="M170.27 610.08C164.88 604.64 160.71 598.35 157.84 591.62C164.57 580.02 171.33 567.68 178.01 554.59C185.37 540.17 191.93 526.19 197.8 512.78C202.53 511.67 207.46 511.13 212.47 511.24C198.4 544.19 184.34 577.14 170.27 610.08Z" />
					<path id="&lt;Path&gt;" class="shp0" d="M492.4 677.75C486.05 759.29 298.87 785.16 211.67 735.35C187.44 721.51 170.93 701.82 168.16 675.87C155.41 556.52 235 447.77 325.72 448.3C358.61 448.49 397.16 461.3 428.98 489.36C469.76 525.3 499.55 586.26 492.4 677.75Z" />
					<path id="&lt;Path&gt;" class="shp1" d="M492.4 677.75C486.05 759.29 298.87 785.16 211.67 735.35C265.07 744.53 424.07 764.93 453.14 688.43C478.14 622.65 448.21 534.51 428.98 489.36C469.76 525.3 499.55 586.26 492.4 677.75Z" />
					<path id="&lt;Path&gt;" class="shp2" d="M220.73 527.96C225.52 534.36 255.32 521.19 275.36 506.62C294.57 492.66 314.22 470.57 309.95 464.26C306.16 458.66 284.17 466.48 270.32 473.74C239.34 489.97 215.5 520.98 220.73 527.96Z" />
					<path id="&lt;Path&gt;" class="shp2" d="M176.69 654.65C177.27 676.44 190.47 697.21 195.86 695.83C201.52 694.38 199.37 668.34 196.85 654.02C196.12 649.9 191.69 624.76 185.82 624.83C181.2 624.89 176.31 640.53 176.69 654.65Z" />
					<g id="&lt;Group&gt;">
						<path id="&lt;Path&gt;" class="shp3" d="M444.28 570.33C444.19 586.7 426.16 596.67 402.97 602.52C378.54 608.7 348.38 610.3 327.39 609.97C297.34 609.51 239.4 603.96 218.61 584.8C213.73 580.31 210.9 575.07 210.94 568.98C211.04 551.25 218.52 535.24 230.53 523.68C242.54 512.13 259.09 505.05 277.32 505.15L378.64 505.74C399.84 505.86 418.64 515.68 430.63 530.85C439.27 541.78 444.37 555.48 444.28 570.33Z" />
						<path id="&lt;Path&gt;" class="shp4" d="M444.28 570.33C444.19 586.7 426.16 596.67 402.97 602.52C378.54 608.7 348.38 610.3 327.39 609.97C297.34 609.51 239.4 603.96 218.61 584.8C278.14 583.36 379.38 574.17 430.63 530.85C439.27 541.78 444.37 555.48 444.28 570.33Z" />
						<g id="&lt;Group&gt;">
							<g id="&lt;Group&gt;">
								<path id="&lt;Path&gt;" class="shp5" d="M423.65 556.41C423.55 572.69 410.28 585.82 393.99 585.73C381.4 585.65 370.7 577.72 366.53 566.6C365.3 563.32 364.64 559.77 364.66 556.07C364.75 539.78 378.03 526.65 394.33 526.75C406.32 526.82 416.59 534.03 421.13 544.33C422.77 548.02 423.67 552.11 423.65 556.41Z" />
								<path id="&lt;Compound Path&gt;" fill-rule="evenodd" class="shp6" d="M394.36 521.71C407.94 521.78 420.26 529.87 425.73 542.28C427.72 546.75 428.72 551.51 428.69 556.44C428.58 575.37 413.09 590.77 394.16 590.77L393.96 590.77C379.72 590.68 366.8 581.68 361.81 568.36C360.33 564.42 359.59 560.27 359.62 556.04C359.73 537.11 375.22 521.71 394.15 521.71L394.15 521.71L394.36 521.71ZM364.66 556.07C364.64 559.77 365.3 563.32 366.53 566.6C370.7 577.72 381.4 585.65 393.99 585.73C394.05 585.73 394.1 585.73 394.16 585.73C410.37 585.73 423.56 572.63 423.65 556.41C423.67 552.11 422.77 548.02 421.13 544.33C416.59 534.03 406.14 526.82 394.15 526.75C377.94 526.75 364.75 539.84 364.66 556.07Z" />
							</g>
							<path id="&lt;Path&gt;" class="shp7" d="M421.1 544.27C409.94 570.82 382.64 569.87 366.59 566.68C365.36 563.41 364.68 559.87 364.69 556.16C364.73 539.87 377.96 526.7 394.26 526.74C406.25 526.77 416.53 533.99 421.1 544.27Z" />
							<path id="&lt;Path&gt;" class="shp2" d="M392.92 546.44C392.89 551.85 388.48 556.2 383.08 556.17C377.67 556.14 373.31 551.73 373.34 546.33C373.38 540.92 377.78 536.56 383.19 536.59C388.6 536.62 392.96 541.03 392.92 546.44Z" />
							<path id="&lt;Path&gt;" class="shp2" d="M417.25 562.1C418.85 563.18 416.6 573.44 409.28 577.33C402.78 580.79 394.2 578.18 394.01 576.29C393.87 574.9 398.33 574.54 405.8 570.07C413.67 565.37 416.14 561.34 417.25 562.1Z" />
						</g>
						<g id="&lt;Group&gt;">
							<g id="&lt;Group&gt;">
								<path id="&lt;Path&gt;" class="shp5" d="M292.82 555.65C292.72 571.94 279.45 585.06 263.16 584.97C250.57 584.9 239.87 576.96 235.7 565.84C234.47 562.56 233.81 559.01 233.83 555.31C233.92 539.02 247.2 525.89 263.5 525.99C275.49 526.06 285.76 533.27 290.3 543.57C291.94 547.26 292.84 551.35 292.82 555.65Z" />
								<path id="&lt;Compound Path&gt;" fill-rule="evenodd" class="shp6" d="M263.53 520.95C277.11 521.03 289.43 529.11 294.9 541.52C296.89 545.99 297.89 550.75 297.86 555.68C297.75 574.61 282.26 590.01 263.33 590.01L263.13 590.01C248.89 589.93 235.97 580.92 230.98 567.61C229.5 563.66 228.76 559.51 228.79 555.28C228.9 536.35 244.39 520.95 263.32 520.95L263.32 520.95L263.53 520.95ZM233.83 555.31C233.81 559.02 234.47 562.56 235.7 565.84C239.87 576.96 250.57 584.9 263.16 584.97C263.22 584.97 263.27 584.97 263.33 584.97C279.54 584.97 292.72 571.88 292.82 555.65C292.84 551.35 291.94 547.26 290.3 543.57C285.76 533.27 275.56 525.98 263.57 525.92C247.36 525.92 233.92 539.08 233.83 555.31Z" />
							</g>
							<path id="&lt;Path&gt;" class="shp7" d="M290.27 543.51C279.11 570.06 251.81 569.11 235.76 565.93C234.53 562.66 233.85 559.11 233.86 555.4C233.9 539.12 247.13 525.94 263.43 525.98C275.42 526.01 285.7 533.23 290.27 543.51Z" />
							<path id="&lt;Path&gt;" class="shp2" d="M262.09 545.68C262.06 551.09 257.65 555.45 252.25 555.41C246.84 555.38 242.48 550.98 242.51 545.57C242.55 540.16 246.95 535.8 252.36 535.83C257.77 535.87 262.13 540.27 262.09 545.68Z" />
							<path id="&lt;Path&gt;" class="shp2" d="M286.42 561.34C288.02 562.42 285.77 572.68 278.45 576.57C271.95 580.03 263.37 577.42 263.18 575.53C263.04 574.14 267.5 573.78 274.97 569.32C282.84 564.61 285.31 560.58 286.42 561.34Z" />
						</g>
						<path id="&lt;Path&gt;" class="shp8" d="M336.73 512.21C337 514.17 323.72 518.71 309.99 519.89C287.71 521.82 267.34 514.65 267.66 512.18C267.8 511.05 281.88 511 310.04 510.93C332.66 510.88 336.58 511.17 336.73 512.21Z" />
					</g>
					<g id="&lt;Group&gt;">
						<path id="&lt;Path&gt;" class="shp0" d="M159.37 553.84C158.78 553.37 144.84 542 136.38 519.91C128.63 499.69 124.19 466.28 147.09 421.87L154.93 425.91C137.99 458.76 134.42 490.17 144.61 516.75C152.24 536.64 164.77 546.87 164.89 546.97L159.37 553.84Z" />
						<path id="&lt;Path&gt;" class="shp3" d="M176.34 418.37C174.26 429.52 163.54 436.87 152.39 434.79C141.24 432.7 133.89 421.98 135.97 410.83C138.05 399.68 148.78 392.33 159.93 394.42C171.08 396.5 178.43 407.22 176.34 418.37Z" />
						<path id="&lt;Path&gt;" class="shp8" d="M143.3 408.6C143.27 414.69 148.18 419.64 154.26 419.67C160.35 419.7 165.31 414.79 165.33 408.71C165.36 402.62 160.45 397.66 154.37 397.64C148.28 397.61 143.33 402.52 143.3 408.6Z" />
					</g>
					<g id="&lt;Group&gt;">
						<path id="&lt;Path&gt;" class="shp3" d="M326.89 660.46C312.73 660.78 301.61 656.4 293.49 650.61C278.93 640.23 274.03 625.31 278.62 624.87C285.75 624.21 302.97 631.68 322.22 631.25C344.33 630.75 359.28 625.28 370.64 624.6C371.15 624.56 371.64 624.54 372.13 624.53C383.67 624.27 370.33 659.48 326.89 660.46Z" />
						<path id="&lt;Path&gt;" class="shp4" d="M326.89 660.46C312.73 660.78 301.61 656.4 293.49 650.61C312.67 647.84 350.31 640.62 370.64 624.6C371.15 624.56 371.64 624.54 372.13 624.53C383.67 624.27 370.33 659.48 326.89 660.46Z" />
					</g>
				</g>
			</g>
			<g id="&lt;Group&gt;">
				<g id="&lt;Group&gt;">
					<path id="&lt;Path&gt;" class="shp9" d="M280.6 285.24L148.07 285.24L148.07 99.69L280.6 99.69L280.6 285.24Z" />
					<path id="&lt;Path&gt;" class="shp10" d="M261.81 99.69L261.81 285.24L129.28 285.24L129.28 99.69L261.81 99.69Z" />
					<path id="&lt;Path&gt;" class="shp11" d="M261.81 99.69L261.81 285.24L129.28 285.24L129.28 243.15C172.99 240.85 230.87 215.71 234.11 99.69L261.81 99.69Z" />
					<path id="&lt;Path&gt;" class="shp12" d="M151.76 285.24L139.65 285.24L139.65 99.69L151.76 99.69L151.76 285.24Z" />
					<path id="&lt;Path&gt;" class="shp13" d="M270.16 281.88L261.82 281.88L261.82 103.79L270.16 103.79L270.16 281.88Z" />
					<g id="&lt;Group&gt;">
						<path id="&lt;Compound Path&gt;" fill-rule="evenodd" class="shp14" d="M243.12 228.48L231.98 228.48L222.88 202.31L186.46 202.31L177.89 228.48L166.69 228.48L199.63 135.13L210.06 135.13L243.12 228.48ZM219.58 192.48L206.1 152.71C205.66 151.41 205.23 149.32 204.79 146.46L204.55 146.46C204.15 149.11 203.69 151.19 203.17 152.71L189.81 192.48L219.58 192.48Z" />
					</g>
				</g>
				<g id="&lt;Group&gt;">
					<path id="&lt;Path&gt;" class="shp15" d="M540.29 285.61L407.76 285.61L407.76 100.06L540.29 100.06L540.29 285.61Z" />
					<path id="&lt;Path&gt;" class="shp16" d="M521.51 100.05L521.51 285.61L388.98 285.61L388.98 100.05L521.51 100.05Z" />
					<path id="&lt;Path&gt;" class="shp17" d="M521.51 100.05L521.51 285.61L388.98 285.61L388.98 243.51C432.69 241.22 490.57 216.08 493.81 100.05L521.51 100.05Z" />
					<path id="&lt;Path&gt;" class="shp18" d="M411.46 285.61L399.34 285.61L399.34 100.06L411.46 100.06L411.46 285.61Z" />
					<path id="&lt;Path&gt;" class="shp13" d="M529.86 282.24L521.51 282.24L521.51 104.15L529.86 104.15L529.86 282.24Z" />
					<path id="&lt;Compound Path&gt;" fill-rule="evenodd" class="shp14" d="M475.29 204.42L504.33 218.31L501.13 225.02L468.69 209.51C459.4 215.92 447.13 221.58 430.86 225.29L429.21 218.04C441.58 215.22 452.17 211.12 460.93 205.8L437.88 194.78L449.72 158.44C440.54 159.35 431.4 160.74 422.39 162.58L420.9 155.3C431.22 153.18 441.71 151.67 452.23 150.74L459.7 127.79L466.77 130.1L460.24 150.15C461.89 150.05 463.53 149.96 465.17 149.9C481.47 149.23 497.93 150.03 514.1 152.26L513.08 159.63C508.18 158.95 503.25 158.42 498.31 158.02C498.09 163.64 496.87 172.78 492.1 182.75C488.88 189.49 483.67 197.21 475.29 204.42ZM467.99 200.93C475.49 195.07 481.26 188.04 485.23 179.88C489.65 170.8 490.69 162.4 490.87 157.51C482.41 157.05 473.92 156.98 465.47 157.32C462.9 157.43 460.33 157.58 457.76 157.76L446.97 190.88L467.99 200.93Z" />
				</g>
				<path id="&lt;Path&gt;" class="shp0" d="M411.46 70.51L481.04 70.51L465.77 6.06L458.54 7.77L469.97 56.06C437.63 31.81 403.6 16.6 368.73 10.8C338.95 5.86 308.52 7.73 278.3 16.39C226.94 31.09 194.42 59.89 193.06 61.11L198.03 66.65C198.35 66.36 230.83 37.64 280.63 23.45C345.41 5 408.05 18.34 466.91 63.08L411.46 63.08L411.46 70.51Z" />
				<path id="&lt;Path&gt;" class="shp0" d="M262.64 321.85L193.06 321.85L208.33 386.3L215.57 384.59L204.13 336.3C236.47 360.55 270.5 375.76 305.37 381.56C335.16 386.51 365.58 384.63 395.8 375.98C447.17 361.27 479.68 332.47 481.04 331.25L476.07 325.71C475.75 326 443.27 354.72 393.47 368.91C328.7 387.36 266.05 374.02 207.19 329.28L262.64 329.28L262.64 321.85Z" />
			</g>
			<path id="&lt;Path&gt;" class="shp19" d="M496.15 1108.01C496.15 1130.84 424.78 1149.34 336.73 1149.34C248.69 1149.34 177.31 1130.84 177.31 1108.01C177.31 1085.18 248.69 1066.68 336.73 1066.68C424.78 1066.68 496.15 1085.18 496.15 1108.01Z" />
		</g>
	</g>
</svg>