<svg version="1.2" baseProfile="tiny-ps" xmlns="http://www.w3.org/2000/svg" viewBox="0 0 694 737" width="694" height="737">
	<title>Modern cute chatbot in different poses flat illustration set-ai</title>
	<style>
		tspan { white-space:pre }
		.shp0 { fill: #5fbbe8 } 
		.shp1 { fill: #5faede } 
		.shp2 { fill: #b1eced } 
		.shp3 { fill: #294f81 } 
		.shp4 { fill: #33487a } 
		.shp5 { fill: #393760 } 
		.shp6 { fill: #46aed2 } 
		.shp7 { fill: #2f4572 } 
		.shp8 { fill: #296abd } 
		.shp9 { fill: #c9eaff } 
	</style>
	<g id="Layer 2">
		<g id="&lt;Group&gt;">
			<g id="&lt;Group&gt;">
				<g id="&lt;Group&gt;">
					<path id="&lt;Path&gt;" class="shp0" d="M155.15 376.99C174.59 382.66 170 405.44 153.96 435.47C134.81 471.33 72.48 520.13 25.94 506.39C25.93 506.38 25.92 506.38 25.92 506.38C21.68 505.13 17.58 503.37 13.65 501.02C-33.46 472.91 108.01 380.42 130.51 376.82C141.16 375.12 149.26 375.27 155.15 376.99Z" />
					<path id="&lt;Path&gt;" class="shp1" d="M155.15 376.99C174.59 382.66 170 405.44 153.96 435.47C134.81 471.33 72.48 520.13 25.94 506.39C67.55 492.59 135.07 458.14 155.15 376.99Z" />
					<path id="&lt;Path&gt;" class="shp2" d="M35.82 453.18C45.85 445.02 63.7 433.11 66.76 436.35C69.88 439.67 57.65 458.88 40.69 471.43C29.12 479.99 13.21 487.02 10.77 483.83C8 480.21 22.73 463.81 35.82 453.18Z" />
				</g>
				<g id="&lt;Group&gt;">
					<path id="&lt;Path&gt;" class="shp0" d="M500.35 434.29C500.35 516.63 442.59 613.33 350.82 613.33C293.96 613.33 247.16 578.52 219.8 531.97C202.98 503.4 193.5 470.39 193.5 438.31C193.5 353.97 285.55 357.99 343.89 357.99C407.88 357.99 483.84 353.08 498 412.67C499.55 419.1 500.35 426.28 500.35 434.29Z" />
					<path id="&lt;Path&gt;" class="shp1" d="M500.35 434.29C500.35 516.63 442.59 613.33 350.82 613.33C293.96 613.33 247.16 578.52 219.8 531.97C276.8 558.8 439.14 614.37 498 412.67C499.55 419.1 500.35 426.28 500.35 434.29Z" />
					<path id="&lt;Path&gt;" class="shp2" d="M225.27 405.61C213.35 425.05 221.78 452.71 242.25 463.57C263.89 475.05 293.32 464.76 301.37 441.94C309.01 420.27 294.28 395.98 273.18 389.16C256.27 383.7 235.18 389.45 225.27 405.61Z" />
				</g>
				<g id="&lt;Group&gt;">
					<path id="&lt;Path&gt;" class="shp0" d="M669.18 439.05C687.62 472.1 691.77 496.47 664.04 498.89C659.27 499.3 653.56 499.07 646.83 498.13C624.26 494.95 481.09 405.13 527.67 376.14C539.71 368.65 553.53 366.65 567.78 368.46C608.69 373.68 653.15 410.32 669.18 439.05Z" />
					<path id="&lt;Path&gt;" class="shp1" d="M669.18 439.05C687.62 472.1 691.77 496.47 664.04 498.89C660.86 477.53 643.6 434.12 567.78 368.46C608.69 373.68 653.15 410.32 669.18 439.05Z" />
					<path id="&lt;Path&gt;" class="shp2" d="M577.91 429.88C598.6 444.97 632.42 472.53 629.7 476.47C627.25 480.03 594.74 464.85 567.97 440.95C553.05 427.63 538.36 410.22 540.54 407.72C543.25 404.6 571.47 425.18 577.91 429.88Z" />
				</g>
				<g id="&lt;Group&gt;">
					<path id="&lt;Path&gt;" class="shp0" d="M147.79 213.32C141.57 208.85 136.4 203.36 132.43 197.2C123.3 183.09 120.43 165.54 125.34 149.22C130.32 132.65 142.7 119.4 158.55 112.76C163.03 110.88 167.8 109.52 172.76 108.78C187.35 150.48 179.03 185.33 147.79 213.32Z" />
					<path id="&lt;Path&gt;" class="shp1" d="M147.79 213.32C141.57 208.85 136.4 203.36 132.43 197.2C137.12 184.64 141.71 171.34 146.09 157.32C150.91 141.86 155.03 126.97 158.55 112.76C163.03 110.88 167.8 109.52 172.76 108.78C164.44 143.62 156.12 178.47 147.79 213.32Z" />
					<path id="&lt;Path&gt;" class="shp0" d="M476.72 225.8C484.18 307.25 304.02 364.25 209.68 329.83C183.47 320.26 163.89 303.63 156.79 278.52C124.13 163.02 184.29 42.42 273.8 27.67C306.25 22.32 346.41 28.47 382.5 50.78C428.74 79.34 468.37 134.41 476.72 225.8Z" />
					<path id="&lt;Path&gt;" class="shp0" d="M133.29 157.93C132.57 157.68 115.59 151.75 100.1 133.86C85.92 117.5 70.36 87.6 76.75 38.05L85.49 39.18C80.73 76.15 87.78 105.94 106.46 127.74C120.39 143.99 135.99 149.53 136.14 149.58L133.29 157.93Z" />
					<path id="&lt;Path&gt;" class="shp3" d="M103.06 24.78C104.9 35.97 97.32 46.54 86.13 48.38C74.94 50.23 64.38 42.65 62.53 31.46C60.69 20.27 68.27 9.7 79.46 7.86C90.65 6.02 101.21 13.59 103.06 24.78Z" />
					<path id="&lt;Path&gt;" class="shp3" d="M417.12 162.6C419.78 178.75 403.69 191.62 381.81 201.29C358.77 211.48 329.3 218.14 308.56 221.36C278.86 225.96 220.82 230.23 197.1 214.85C191.54 211.24 187.86 206.55 186.87 200.54C183.99 183.05 188.67 166.01 198.56 152.59C208.46 139.19 223.58 129.42 241.57 126.45L341.54 109.98C362.45 106.53 382.64 113.05 397.01 125.98C407.37 135.31 414.7 147.95 417.12 162.6Z" />
					<path id="&lt;Path&gt;" class="shp4" d="M417.12 162.6C419.78 178.75 403.69 191.62 381.81 201.29C358.77 211.48 329.3 218.14 308.56 221.36C278.86 225.96 220.82 230.23 197.1 214.85C255.54 203.4 353.79 177.31 397.01 125.98C407.37 135.31 414.7 147.95 417.12 162.6Z" />
					<path id="&lt;Path&gt;" class="shp1" d="M476.72 225.8C484.18 307.25 304.02 364.25 209.68 329.83C263.87 329.89 424.04 323.24 439.82 242.94C453.39 173.89 409.05 92.04 382.5 50.78C428.74 79.34 468.37 134.41 476.72 225.8Z" />
					<path id="&lt;Path&gt;" class="shp2" d="M183.71 123.87C189.52 129.38 216.67 111.38 233.97 93.64C250.56 76.64 266.22 51.56 260.94 46.06C256.26 41.18 235.9 52.59 223.47 62.07C195.66 83.29 177.39 117.87 183.71 123.87Z" />
					<path id="&lt;Path&gt;" class="shp2" d="M161.62 256.16C165.86 277.55 182.37 295.8 187.45 293.53C192.79 291.15 186.29 265.84 181.39 252.15C179.98 248.22 171.38 224.17 165.6 225.23C161.06 226.07 158.88 242.31 161.62 256.16Z" />
					<g id="&lt;Group&gt;">
						<g id="&lt;Group&gt;">
							<path id="&lt;Path&gt;" class="shp5" d="M394.43 152.35C397.08 168.42 386.2 183.6 370.13 186.24C357.71 188.29 345.82 182.27 339.84 172.01C338.08 168.99 336.83 165.6 336.23 161.94C333.58 145.87 344.46 130.7 360.54 128.05C372.37 126.1 383.75 131.42 389.95 140.8C392.2 144.17 393.73 148.11 394.43 152.35Z" />
							<path id="&lt;Compound Path&gt;" fill-rule="evenodd" class="shp6" d="M394.11 137.97C396.82 142.01 398.6 146.51 399.41 151.34C402.5 170 389.74 187.68 370.95 190.76C369.08 191.06 367.17 191.22 365.29 191.22C353.07 191.22 341.65 184.69 335.49 174.2C333.37 170.58 331.94 166.64 331.25 162.49C329.75 153.45 331.89 144.37 337.26 136.93C342.64 129.48 350.61 124.56 359.72 123.07C361.59 122.77 363.49 122.61 365.37 122.61C376.96 122.61 387.71 128.36 394.11 137.97ZM360.54 128.01C344.46 130.64 333.58 145.72 336.23 161.68C336.83 165.31 338.16 169.08 339.92 172.08C345.12 180.94 354.7 186.21 365.29 186.21C366.89 186.21 368.5 186.08 370.13 185.82C386.2 183.19 397.08 168.11 394.43 152.15C393.73 147.94 392.16 144.09 389.92 140.74C384.56 132.7 375.34 127.61 365.33 127.61C363.74 127.61 362.16 127.75 360.54 128.01Z" />
						</g>
						<path id="&lt;Path&gt;" class="shp7" d="M389.94 140.78C383.41 168.83 356.27 172.52 339.92 172.08C338.15 169.07 336.88 165.69 336.27 162.03C333.57 145.97 344.4 130.76 360.47 128.05C372.29 126.07 383.7 131.41 389.94 140.78Z" />
						<path id="&lt;Path&gt;" class="shp2" d="M362.47 147.7C363.35 153.03 359.74 158.07 354.4 158.95C349.07 159.83 344.03 156.21 343.15 150.88C342.27 145.54 345.88 140.51 351.22 139.63C356.55 138.75 361.59 142.36 362.47 147.7Z" />
						<path id="&lt;Path&gt;" class="shp2" d="M389.08 159.04C390.84 159.84 390.36 170.33 383.79 175.39C377.96 179.89 369.07 178.77 368.56 176.94C368.19 175.59 372.52 174.49 379.14 168.83C386.1 162.87 387.86 158.48 389.08 159.04Z" />
					</g>
					<g id="&lt;Group&gt;">
						<g id="&lt;Group&gt;">
							<path id="&lt;Path&gt;" class="shp5" d="M265.34 173.62C267.99 189.69 257.11 204.87 241.04 207.52C228.61 209.56 216.73 203.54 210.75 193.28C208.99 190.26 207.74 186.87 207.13 183.21C204.49 167.14 215.37 151.97 231.45 149.32C243.28 147.37 254.62 152.75 260.82 162.14C263.07 165.5 264.64 169.38 265.34 173.62Z" />
							<path id="&lt;Compound Path&gt;" fill-rule="evenodd" class="shp6" d="M265.02 159.34C267.73 163.41 269.51 167.94 270.31 172.8C271.81 181.9 269.68 191.04 264.3 198.54C258.93 206.03 250.96 210.99 241.86 212.49C239.99 212.8 238.08 212.95 236.2 212.95C223.98 212.95 212.56 206.39 206.4 195.82C204.27 192.17 202.85 188.21 202.16 184.03C199.06 165.25 211.84 147.44 230.63 144.35C232.5 144.04 234.4 143.88 236.28 143.88C247.87 143.88 258.62 149.67 265.02 159.34ZM231.45 149.32C215.37 151.97 204.49 167.14 207.13 183.21C207.74 186.87 208.99 190.26 210.75 193.28C215.95 202.2 225.6 207.91 236.2 207.91C237.79 207.91 239.41 207.78 241.04 207.52C257.11 204.87 267.99 189.69 265.34 173.62C264.64 169.38 263.07 165.5 260.82 162.14C255.47 154.04 246.25 148.91 236.24 148.91C234.64 148.91 233.07 149.05 231.45 149.32Z" />
						</g>
						<path id="&lt;Path&gt;" class="shp7" d="M260.79 162.09C254.25 190.14 227.18 193.79 210.83 193.35C209.06 190.34 207.79 186.96 207.18 183.3C204.48 167.24 215.31 152.03 231.38 149.33C243.2 147.34 254.55 152.72 260.79 162.09Z" />
						<path id="&lt;Path&gt;" class="shp2" d="M233.38 168.97C234.26 174.3 230.64 179.34 225.31 180.22C219.97 181.1 214.94 177.49 214.06 172.15C213.18 166.82 216.79 161.78 222.13 160.9C227.46 160.02 232.5 163.63 233.38 168.97Z" />
						<path id="&lt;Path&gt;" class="shp2" d="M259.99 180.31C261.75 181.11 261.26 191.6 254.7 196.66C248.87 201.17 239.97 200.04 239.47 198.21C239.1 196.86 243.43 195.76 250.05 190.1C257.01 184.14 258.77 179.75 259.99 180.31Z" />
					</g>
					<path id="&lt;Path&gt;" class="shp8" d="M301.31 123.41C301.91 125.3 289.59 132.01 276.25 135.49C254.61 141.13 233.33 137.49 233.22 135.01C233.17 133.87 247.05 131.45 274.79 126.65C297.08 122.79 300.99 122.41 301.31 123.41Z" />
					<path id="&lt;Path&gt;" class="shp8" d="M68.66 26.87C70.71 32.6 77.01 35.58 82.74 33.54C88.47 31.49 91.46 25.18 89.41 19.45C87.36 13.72 81.06 10.74 75.33 12.78C69.6 14.83 66.61 21.14 68.66 26.87Z" />
					<g id="&lt;Group&gt;">
						<path id="&lt;Path&gt;" class="shp3" d="M331.19 292.89C318.88 295.66 307.81 291.16 298.94 284.14C283.03 271.56 274.22 250.85 278.1 249.47C284.15 247.35 301.51 255.32 318.23 251.56C337.45 247.24 348.89 236.92 358.64 234.08C359.07 233.94 359.5 233.83 359.92 233.74C369.96 231.48 368.95 284.4 331.19 292.89Z" />
						<path id="&lt;Path&gt;" class="shp4" d="M331.19 292.89C318.88 295.66 307.81 291.16 298.94 284.14C314.9 277.02 345.69 260.48 358.64 234.08C359.07 233.94 359.5 233.83 359.92 233.74C369.96 231.48 368.95 284.4 331.19 292.89Z" />
					</g>
				</g>
			</g>
			<path id="&lt;Path&gt;" class="shp9" d="M519.5 693.54C519.5 716.37 448.12 734.88 360.08 734.88C272.03 734.88 200.66 716.37 200.66 693.54C200.66 670.72 272.03 652.21 360.08 652.21C448.12 652.21 519.5 670.72 519.5 693.54Z" />
		</g>
	</g>
</svg>
