<svg version="1.2" baseProfile="tiny-ps" xmlns="http://www.w3.org/2000/svg" viewBox="0 0 764 876" width="764" height="876">
	<title>Modern cute chatbot in different poses flat illustration set-ai</title>
	<style>
		tspan { white-space:pre }
		.shp0 { fill: #576bae } 
		.shp1 { fill: #5776d2 } 
		.shp2 { fill: #5b96da } 
		.shp3 { fill: #d8e3ff } 
		.shp4 { fill: #e3eeff } 
		.shp5 { fill: #5bacda } 
		.shp6 { fill: #326bab } 
		.shp7 { fill: #deffff } 
		.shp8 { fill: #c2ddff } 
		.shp9 { fill: #5fbbe8 } 
		.shp10 { fill: #5faede } 
		.shp11 { fill: #b1eced } 
		.shp12 { fill: #294f81 } 
		.shp13 { fill: #33487a } 
		.shp14 { fill: #296abd } 
		.shp15 { fill: #393760 } 
		.shp16 { fill: #46aed2 } 
		.shp17 { fill: #2f4572 } 
		.shp18 { fill: #c9eaff } 
	</style>
	<g id="Layer 2">
		<g id="&lt;Group&gt;">
			<g id="&lt;Group&gt;">
				<path id="&lt;Path&gt;" class="shp0" d="M510.31 691.82L164.95 711.67C142.21 712.97 120.68 695.38 116.87 672.37L18.64 80.11C14.83 57.1 30.17 37.39 52.91 36.08L398.26 16.24C421 14.93 442.53 32.52 446.35 55.53L544.58 647.8C548.39 670.81 533.05 690.52 510.31 691.82Z" />
				<path id="&lt;Path&gt;" class="shp1" d="M469.51 54.2L567.73 646.47C571.55 669.48 556.2 689.19 533.47 690.49L188.11 710.34C165.37 711.65 143.84 694.05 140.03 671.05L41.8 78.77C37.98 55.77 53.32 36.05 76.07 34.75L421.42 14.9C444.15 13.6 465.69 31.2 469.51 54.2Z" />
				<path id="&lt;Path&gt;" class="shp2" d="M469.51 54.2L470.83 62.18C461.84 299.22 253.1 439.59 112.89 507.44L41.8 78.77C37.98 55.77 53.32 36.05 76.07 34.75L421.42 14.9C444.15 13.6 465.69 31.2 469.51 54.2Z" />
				<path id="&lt;Path&gt;" class="shp3" d="M445.79 70.99L529.48 575.59C532.78 595.51 519.5 612.56 499.83 613.69L195.87 631.15C176.19 632.28 157.56 617.07 154.26 597.15L70.57 92.55C67.27 72.65 80.55 55.59 100.23 54.46L404.19 37C423.86 35.87 442.49 51.09 445.79 70.99Z" />
				<path id="&lt;Path&gt;" class="shp4" d="M445.79 70.99L458.44 147.25C405.85 324.3 298.78 439.99 137.21 494.34L70.57 92.55C67.27 72.65 80.55 55.59 100.23 54.46L404.19 37C423.86 35.87 442.49 51.09 445.79 70.99Z" />
				<g id="&lt;Group&gt;">
					<path id="&lt;Path&gt;" class="shp5" d="M379.11 658.1C381.43 672.13 372.08 684.14 358.22 684.94C344.36 685.73 331.23 675.01 328.91 660.99C326.58 646.96 335.93 634.95 349.8 634.15C363.66 633.36 376.78 644.08 379.11 658.1Z" />
					<path id="&lt;Compound Path&gt;" fill-rule="evenodd" class="shp6" d="M381.12 657.99C383.63 673.13 373.53 686.11 358.56 686.97C343.58 687.83 329.41 676.25 326.9 661.1C324.39 645.96 334.49 632.98 349.46 632.12C364.43 631.26 378.6 642.84 381.12 657.99ZM335.61 660.6C337.31 670.86 346.95 678.74 357.09 678.16C367.24 677.57 374.1 668.75 372.4 658.49C370.7 648.23 361.06 640.35 350.92 640.93C340.78 641.52 333.91 650.34 335.61 660.6Z" />
				</g>
				<path id="&lt;Path&gt;" class="shp2" d="M295.23 653.53L172.6 660.57C169.12 660.77 165.83 658.09 165.25 654.57C164.66 651.05 167.01 648.04 170.48 647.84L293.12 640.8C296.59 640.6 299.88 643.28 300.47 646.8C301.05 650.32 298.71 653.33 295.23 653.53Z" />
				<path id="&lt;Path&gt;" class="shp2" d="M526.3 640.25L406.25 647.15C402.77 647.35 399.48 644.66 398.9 641.14C398.31 637.63 400.66 634.62 404.14 634.42L524.19 627.52C527.66 627.32 530.95 630.01 531.54 633.52C532.12 637.04 529.78 640.05 526.3 640.25Z" />
				<path id="&lt;Path&gt;" class="shp7" d="M495.01 595.63L198.1 612.69C188.6 613.24 179.6 605.88 178 596.26C176.41 586.65 182.82 578.41 192.33 577.86L489.23 560.8C498.74 560.26 507.74 567.61 509.33 577.23C510.93 586.84 504.51 595.08 495.01 595.63Z" />
				<path id="&lt;Path&gt;" class="shp8" d="M396.72 504.3L468.75 500.16C473.5 499.89 476.71 495.77 475.91 490.96C475.11 486.15 470.61 482.47 465.86 482.75L393.83 486.88C389.08 487.16 385.88 491.28 386.67 496.09C387.47 500.89 391.97 504.57 396.72 504.3Z" />
			</g>
			<g id="&lt;Group&gt;">
				<g id="&lt;Group&gt;">
					<path id="&lt;Path&gt;" class="shp9" d="M736.32 582.41C736.32 664.74 678.56 761.45 586.79 761.45C529.93 761.45 483.13 726.63 455.77 680.09C438.95 651.51 429.46 618.51 429.46 586.43C429.46 502.08 521.52 506.1 579.86 506.1C643.85 506.1 719.8 501.2 733.96 560.78C735.51 567.21 736.32 574.39 736.32 582.41Z" />
					<path id="&lt;Path&gt;" class="shp10" d="M736.32 582.41C736.32 664.74 678.56 761.45 586.79 761.45C529.93 761.45 483.13 726.63 455.77 680.09C512.76 706.91 675.11 762.48 733.96 560.78C735.51 567.21 736.32 574.39 736.32 582.41Z" />
					<path id="&lt;Path&gt;" class="shp11" d="M508.88 538.67C496.96 558.11 505.39 585.77 525.86 596.63C547.5 608.11 576.93 597.82 584.98 575C592.62 553.33 577.9 529.04 556.8 522.22C539.88 516.76 518.79 522.51 508.88 538.67Z" />
				</g>
				<g id="&lt;Group&gt;">
					<path id="&lt;Path&gt;" class="shp9" d="M425.34 592.17C469.04 598.8 497.4 593.34 488.67 562.02C487.17 556.64 484.58 550.49 480.79 543.52C468.06 520.14 311.15 400.4 298.54 463.22C295.28 479.46 298.76 495.39 306.59 510.23C329.06 552.83 387.35 586.43 425.34 592.17Z" />
					<path id="&lt;Path&gt;" class="shp10" d="M425.34 592.17C469.04 598.8 497.4 593.34 488.67 562.02C464.01 567.3 409.46 566.22 306.59 510.23C329.06 552.83 387.35 586.43 425.34 592.17Z" />
					<path id="&lt;Path&gt;" class="shp11" d="M377.9 496.13C402.88 512.56 446.89 538.25 450.08 533.66C452.96 529.52 423.04 500.2 385.93 480.72C365.25 469.87 340.19 460.94 338.34 464.35C336.05 468.59 370.12 491.01 377.9 496.13Z" />
				</g>
				<g id="&lt;Group&gt;">
					<path id="&lt;Path&gt;" class="shp9" d="M745.31 398.55C739.42 480.13 552.39 507.08 464.91 457.78C440.6 444.08 423.98 424.49 421.06 398.55C407.61 279.28 486.58 170.07 577.3 170.07C610.19 170.07 648.81 182.66 680.79 210.54C721.78 246.24 751.92 307.02 745.31 398.55Z" />
					<path id="&lt;Path&gt;" class="shp12" d="M477.97 413.73C469.82 411.07 464.5 405.84 461.23 400.27C455.36 390.27 456.08 379.15 458.8 379.78C463.03 380.78 469.44 394.06 480.52 397.67C493.26 401.82 504.75 396.43 511.39 398.27C511.69 398.35 511.97 398.44 512.26 398.53C518.91 400.7 503 421.88 477.97 413.73Z" />
					<path id="&lt;Path&gt;" class="shp10" d="M745.31 398.55C739.42 480.13 552.39 507.08 464.91 457.78C518.36 466.65 677.48 486.13 706.1 409.47C730.73 343.54 700.28 255.58 680.79 210.54C721.78 246.24 751.92 307.02 745.31 398.55Z" />
					<g id="&lt;Group&gt;">
						<path id="&lt;Path&gt;" class="shp12" d="M616.92 338.81C613.5 354.82 595.78 361.34 574.41 362.9C551.89 364.54 525.32 360.68 507.13 356.59C481.08 350.73 431.8 334.87 417.62 312.37C414.29 307.1 412.9 301.46 414.17 295.51C417.87 278.17 426.8 260.47 439.61 251.31C452.42 242.17 469.1 241.58 484.94 244.96L572.97 263.76C591.39 267.7 605.75 280.7 613.08 297.7C618.38 309.96 620.02 324.3 616.92 338.81Z" />
						<path id="&lt;Path&gt;" class="shp13" d="M616.92 338.81C613.5 354.82 595.78 361.34 574.41 362.9C551.89 364.54 525.32 360.68 507.13 356.59C481.08 350.73 431.8 334.87 417.62 312.37C469.71 321.67 559.66 330.9 613.08 297.7C618.38 309.96 620.02 324.3 616.92 338.81Z" />
						<path id="&lt;Path&gt;" class="shp14" d="M541.34 264.97C541.18 266.93 528.7 268.99 516.51 267.68C496.73 265.55 480.48 254.87 481.25 252.51C481.61 251.43 493.87 253.91 518.38 258.92C538.08 262.94 541.43 263.93 541.34 264.97Z" />
					</g>
					<g id="&lt;Group&gt;">
						<g id="&lt;Group&gt;">
							<path id="&lt;Path&gt;" class="shp15" d="M485.27 286.92C485.27 301.68 473.3 313.65 458.53 313.65C447.12 313.65 437.38 306.51 433.54 296.45C432.41 293.49 431.79 290.28 431.79 286.92C431.79 272.15 443.76 260.18 458.53 260.18C469.4 260.18 478.75 266.67 482.92 275.98C484.43 279.32 485.27 283.02 485.27 286.92Z" />
							<path id="&lt;Compound Path&gt;" fill-rule="evenodd" class="shp16" d="M487.51 273.9C489.37 278.01 490.31 282.38 490.31 286.92C490.31 304.44 476.05 318.69 458.53 318.69C445.43 318.69 433.5 310.47 428.83 298.25C427.45 294.62 426.75 290.81 426.75 286.92C426.75 269.39 441.01 255.14 458.53 255.14C471.04 255.14 482.41 262.51 487.51 273.9ZM431.79 286.92C431.79 290.28 432.41 293.49 433.54 296.45C437.38 306.51 447.12 313.65 458.53 313.65C473.3 313.65 485.27 301.68 485.27 286.92C485.27 283.02 484.43 279.32 482.92 275.98C478.75 266.67 469.4 260.18 458.53 260.18C443.75 260.18 431.79 272.15 431.79 286.92Z" />
						</g>
						<path id="&lt;Path&gt;" class="shp17" d="M482.91 275.95C472.93 300.08 448.16 299.33 433.6 296.53C432.46 293.57 431.83 290.36 431.82 287C431.77 272.24 443.7 260.23 458.47 260.18C469.34 260.14 478.71 266.66 482.91 275.95Z" />
						<path id="&lt;Path&gt;" class="shp11" d="M457.36 278.04C457.36 282.94 453.39 286.92 448.49 286.92C443.59 286.92 439.61 282.94 439.61 278.04C439.61 273.14 443.59 269.16 448.49 269.16C453.39 269.16 457.36 273.14 457.36 278.04Z" />
						<path id="&lt;Path&gt;" class="shp11" d="M479.5 292.11C480.95 293.08 478.97 302.39 472.35 305.96C466.47 309.12 458.68 306.81 458.5 305.09C458.37 303.83 462.41 303.49 469.16 299.4C476.27 295.09 478.49 291.43 479.5 292.11Z" />
					</g>
					<g id="&lt;Group&gt;">
						<g id="&lt;Group&gt;">
							<path id="&lt;Path&gt;" class="shp15" d="M585.93 313.65C585.93 328.42 573.96 340.39 559.2 340.39C547.78 340.39 538.04 333.25 534.21 323.19C533.08 320.23 532.45 317.01 532.45 313.65C532.45 298.89 544.42 286.92 559.2 286.92C570.07 286.92 579.42 293.4 583.59 302.71C585.1 306.06 585.93 309.76 585.93 313.65Z" />
							<path id="&lt;Compound Path&gt;" fill-rule="evenodd" class="shp16" d="M588.18 300.64C590.03 304.74 590.97 309.12 590.97 313.65C590.97 331.17 576.72 345.43 559.2 345.43C546.1 345.43 534.16 337.21 529.5 324.98C528.11 321.36 527.41 317.55 527.41 313.65C527.41 296.13 541.67 281.88 559.2 281.88C571.7 281.88 583.08 289.25 588.18 300.64ZM532.45 313.65C532.45 317.01 533.08 320.23 534.21 323.19C538.04 333.25 547.78 340.39 559.2 340.39C573.96 340.39 585.93 328.42 585.93 313.65C585.93 309.76 585.1 306.06 583.59 302.71C579.42 293.4 570.06 286.92 559.19 286.92C544.42 286.92 532.45 298.89 532.45 313.65Z" />
						</g>
						<path id="&lt;Path&gt;" class="shp17" d="M583.56 302.66C573.58 326.79 548.83 326.07 534.27 323.27C533.13 320.31 532.49 317.1 532.48 313.74C532.43 298.97 544.36 286.96 559.14 286.91C570 286.88 579.36 293.36 583.56 302.66Z" />
						<path id="&lt;Path&gt;" class="shp11" d="M558.03 304.78C558.03 309.68 554.05 313.65 549.15 313.65C544.25 313.65 540.28 309.68 540.28 304.78C540.28 299.87 544.25 295.9 549.15 295.9C554.05 295.9 558.03 299.87 558.03 304.78Z" />
						<path id="&lt;Path&gt;" class="shp11" d="M580.16 318.84C581.61 319.82 579.64 329.13 573.02 332.69C567.14 335.86 559.35 333.54 559.17 331.83C559.03 330.57 563.07 330.22 569.83 326.14C576.93 321.83 579.15 318.16 580.16 318.84Z" />
					</g>
					<g id="&lt;Group&gt;">
						<path id="&lt;Path&gt;" class="shp9" d="M592.41 200.15C592.3 199.41 589.74 181.6 598.46 159.61C606.45 139.49 625.82 111.89 672.73 94.72L675.76 103C640.76 115.82 617.57 135.81 606.84 162.43C598.83 182.29 601.11 198.68 601.13 198.84L592.41 200.15Z" />
						<path id="&lt;Path&gt;" class="shp12" d="M696.63 111.95C687.55 118.75 674.68 116.89 667.89 107.81C661.09 98.73 662.95 85.87 672.03 79.07C681.11 72.28 693.97 74.13 700.77 83.21C707.56 92.29 705.71 105.16 696.63 111.95Z" />
						<path id="&lt;Path&gt;" class="shp14" d="M678.92 82.39C674.78 86.85 675.04 93.82 679.5 97.96C683.96 102.1 690.93 101.85 695.07 97.39C699.21 92.93 698.95 85.96 694.5 81.82C690.04 77.67 683.07 77.93 678.92 82.39Z" />
					</g>
					<path id="&lt;Path&gt;" class="shp11" d="M629.52 204.67C632.41 222.1 600.51 245.4 569.89 248.23C542.7 250.74 509.52 237.78 507.8 221.09C505.99 203.41 539.68 182.98 569.89 180.77C594.46 178.97 626.83 188.49 629.52 204.67Z" />
				</g>
			</g>
			<path id="&lt;Path&gt;" class="shp18" d="M740.03 827.14C740.03 849.97 668.66 868.47 580.61 868.47C492.57 868.47 421.19 849.97 421.19 827.14C421.19 804.31 492.57 785.81 580.61 785.81C668.66 785.81 740.03 804.31 740.03 827.14Z" />
		</g>
	</g>
</svg>