<svg version="1.2" baseProfile="tiny-ps" xmlns="http://www.w3.org/2000/svg" viewBox="0 0 761 804" width="761" height="804">
	<title>Modern cute chatbot in different poses flat illustration set-ai</title>
	<style>
		tspan { white-space:pre }
		.shp0 { fill: #5fbbe8 } 
		.shp1 { fill: #5faede } 
		.shp2 { fill: #294f81 } 
		.shp3 { fill: #33487a } 
		.shp4 { fill: #b1eced } 
		.shp5 { fill: #393760 } 
		.shp6 { fill: #46aed2 } 
		.shp7 { fill: #2f4572 } 
		.shp8 { fill: #296abd } 
		.shp9 { fill: #d36e52 } 
		.shp10 { fill: #e4b166 } 
		.shp11 { fill: #f3e0b3 } 
		.shp12 { fill: #f48b4d } 
		.shp13 { fill: #c9eaff } 
	</style>
	<g id="Layer 2">
		<g id="&lt;Group&gt;">
			<g id="&lt;Group&gt;">
				<path id="&lt;Path&gt;" class="shp0" d="M218.24 233.95C212.82 228.53 208.61 222.27 205.7 215.56C198.98 200.14 199.01 182.37 206.51 167.06C214.12 151.52 228.48 140.46 245.2 136.49C249.93 135.35 254.85 134.79 259.87 134.86C267.49 178.38 253.61 211.41 218.24 233.95Z" />
				<path id="&lt;Path&gt;" class="shp1" d="M218.24 233.95C212.82 228.53 208.61 222.27 205.7 215.56C212.36 203.92 219.06 191.54 225.66 178.42C232.93 163.95 239.41 149.93 245.2 136.49C249.93 135.35 254.85 134.79 259.87 134.86C245.99 167.89 232.11 200.92 218.24 233.95Z" />
				<path id="&lt;Path&gt;" class="shp0" d="M540.76 299.75C534.87 381.33 347.84 408.28 260.36 358.97C236.05 345.28 219.43 325.68 216.51 299.75C203.07 180.48 282.03 71.27 372.76 71.27C405.64 71.27 444.26 83.86 476.24 111.74C517.23 147.44 547.37 208.22 540.76 299.75Z" />
				<path id="&lt;Path&gt;" class="shp0" d="M212.93 176.94C212.26 176.58 196.47 167.97 184.09 147.8C172.77 129.35 162.28 97.32 176.63 49.47L185.08 52C174.37 87.7 176.48 118.25 191.37 142.79C202.47 161.09 216.96 169.09 217.1 169.17L212.93 176.94Z" />
				<path id="&lt;Path&gt;" class="shp2" d="M204.75 40.65C204.75 51.99 195.56 61.19 184.22 61.19C172.87 61.19 163.68 51.99 163.68 40.65C163.68 29.31 172.87 20.12 184.22 20.12C195.56 20.12 204.75 29.31 204.75 40.65Z" />
				<path id="&lt;Path&gt;" class="shp2" d="M492.22 227.7C492.22 244.07 474.25 254.15 451.09 260.14C426.7 266.45 396.55 268.23 375.55 268.02C345.5 267.73 287.54 262.52 266.63 243.48C261.73 239.02 258.87 233.79 258.87 227.7C258.87 209.97 266.26 193.92 278.2 182.29C290.15 170.67 306.65 163.49 324.89 163.49L426.21 163.49C447.4 163.49 466.26 173.2 478.34 188.3C487.04 199.19 492.22 212.86 492.22 227.7Z" />
				<path id="&lt;Path&gt;" class="shp3" d="M492.22 227.7C492.22 244.07 474.25 254.15 451.09 260.14C426.7 266.45 396.55 268.23 375.55 268.02C345.5 267.73 287.54 262.52 266.63 243.48C326.16 241.69 427.34 231.92 478.34 188.3C487.04 199.19 492.22 212.86 492.22 227.7Z" />
				<path id="&lt;Path&gt;" class="shp1" d="M540.76 299.75C534.87 381.33 347.84 408.28 260.36 358.97C313.81 367.84 472.93 387.32 501.56 310.66C526.18 244.74 495.74 156.77 476.24 111.74C517.23 147.44 547.37 208.22 540.76 299.75Z" />
				<path id="&lt;Path&gt;" class="shp4" d="M268.22 151.54C273.05 157.91 302.77 144.57 322.73 129.88C341.86 115.81 361.38 93.6 357.08 87.32C353.25 81.74 331.3 89.69 317.5 97.03C286.61 113.44 262.95 144.59 268.22 151.54Z" />
				<path id="&lt;Path&gt;" class="shp4" d="M224.91 278.47C225.62 300.27 238.94 320.95 244.32 319.54C249.98 318.06 247.68 292.03 245.07 277.73C244.32 273.62 239.75 248.5 233.87 248.61C229.25 248.69 224.46 264.36 224.91 278.47Z" />
				<g id="&lt;Group&gt;">
					<g id="&lt;Group&gt;">
						<path id="&lt;Path&gt;" class="shp5" d="M471.51 213.9C471.51 230.19 458.3 243.39 442.02 243.39C429.42 243.39 418.68 235.52 414.45 224.42C413.2 221.15 412.51 217.61 412.51 213.9C412.51 197.61 425.72 184.41 442.02 184.41C454 184.41 464.32 191.57 468.92 201.84C470.58 205.52 471.51 209.6 471.51 213.9Z" />
						<path id="&lt;Compound Path&gt;" fill-rule="evenodd" class="shp6" d="M473.51 199.76C475.52 204.22 476.55 208.98 476.55 213.9C476.55 232.94 461.06 248.43 442.02 248.43C427.78 248.43 414.81 239.5 409.74 226.22C408.24 222.28 407.47 218.13 407.47 213.9C407.47 194.86 422.97 179.37 442.02 179.37C455.6 179.37 467.97 187.38 473.51 199.76ZM412.51 213.9C412.51 217.61 413.2 221.15 414.45 224.42C418.68 235.52 429.42 243.39 442.02 243.39C458.3 243.39 471.51 230.19 471.51 213.9C471.51 209.6 470.58 205.52 468.92 201.84C464.32 191.57 454 184.41 442.01 184.41C425.71 184.41 412.51 197.61 412.51 213.9Z" />
					</g>
					<path id="&lt;Path&gt;" class="shp7" d="M468.9 201.74C457.9 228.36 430.57 227.6 414.51 224.51C413.25 221.24 412.56 217.7 412.54 213.99C412.49 197.71 425.65 184.46 441.95 184.41C453.94 184.37 464.27 191.49 468.9 201.74Z" />
					<path id="&lt;Path&gt;" class="shp4" d="M440.72 204.11C440.72 209.52 436.34 213.9 430.93 213.9C425.53 213.9 421.14 209.52 421.14 204.11C421.14 198.7 425.53 194.32 430.93 194.32C436.34 194.32 440.72 198.7 440.72 204.11Z" />
					<path id="&lt;Path&gt;" class="shp4" d="M465.14 219.63C466.74 220.7 464.56 230.98 457.26 234.91C450.77 238.4 442.18 235.84 441.98 233.95C441.83 232.56 446.29 232.18 453.74 227.67C461.58 222.92 464.02 218.88 465.14 219.63Z" />
				</g>
				<g id="&lt;Group&gt;">
					<g id="&lt;Group&gt;">
						<path id="&lt;Path&gt;" class="shp5" d="M340.67 213.9C340.67 230.19 327.47 243.39 311.18 243.39C298.59 243.39 287.85 235.51 283.62 224.42C282.37 221.15 281.68 217.6 281.68 213.9C281.68 197.61 294.88 184.41 311.18 184.41C323.17 184.41 333.49 191.56 338.08 201.83C339.75 205.52 340.67 209.6 340.67 213.9Z" />
						<path id="&lt;Compound Path&gt;" fill-rule="evenodd" class="shp6" d="M342.68 199.76C344.69 204.22 345.71 208.97 345.71 213.9C345.71 232.94 330.22 248.43 311.18 248.43C296.95 248.43 283.97 239.5 278.91 226.21C277.4 222.27 276.64 218.13 276.64 213.9C276.64 194.86 292.14 179.37 311.18 179.37C324.77 179.37 337.13 187.38 342.68 199.76ZM281.68 213.9C281.68 217.6 282.37 221.15 283.62 224.42C287.85 235.51 298.59 243.39 311.18 243.39C327.47 243.39 340.67 230.19 340.67 213.9C340.67 209.6 339.75 205.52 338.08 201.83C333.49 191.56 323.17 184.41 311.18 184.41C294.88 184.41 281.68 197.61 281.68 213.9Z" />
					</g>
					<path id="&lt;Path&gt;" class="shp7" d="M338.07 201.74C327.06 228.36 299.74 227.6 283.68 224.5C282.42 221.24 281.72 217.7 281.71 213.99C281.66 197.71 294.82 184.46 311.11 184.4C323.1 184.36 333.44 191.48 338.07 201.74Z" />
					<path id="&lt;Path&gt;" class="shp4" d="M309.89 204.11C309.89 209.52 305.51 213.9 300.1 213.9C294.69 213.9 290.31 209.52 290.31 204.11C290.31 198.7 294.69 194.32 300.1 194.32C305.51 194.32 309.89 198.7 309.89 204.11Z" />
					<path id="&lt;Path&gt;" class="shp4" d="M334.31 219.62C335.91 220.7 333.73 230.97 326.43 234.9C319.94 238.4 311.35 235.84 311.15 233.95C311 232.56 315.46 232.18 322.91 227.67C330.75 222.92 333.19 218.87 334.31 219.62Z" />
				</g>
				<path id="&lt;Path&gt;" class="shp8" d="M384.33 170.2C384.62 172.16 371.36 176.78 357.63 178.04C335.37 180.1 314.96 173.05 315.26 170.58C315.4 169.44 329.48 169.31 357.63 169.08C380.26 168.9 384.18 169.17 384.33 170.2Z" />
				<path id="&lt;Path&gt;" class="shp8" d="M170.47 37.12C171.56 43.1 177.3 47.08 183.28 45.99C189.27 44.9 193.24 39.16 192.15 33.17C191.06 27.19 185.33 23.22 179.34 24.3C173.35 25.39 169.38 31.13 170.47 37.12Z" />
			</g>
			<g id="&lt;Group&gt;">
				<path id="&lt;Path&gt;" class="shp0" d="M528.98 486.21C528.98 568.54 471.22 665.25 379.45 665.25C322.58 665.25 275.78 630.43 248.43 583.89C231.61 555.31 222.12 522.31 222.12 490.23C222.12 405.88 314.18 409.9 372.52 409.9C436.5 409.9 512.46 405 526.62 464.59C528.17 471.01 528.98 478.19 528.98 486.21Z" />
				<path id="&lt;Path&gt;" class="shp1" d="M528.98 486.21C528.98 568.54 471.22 665.25 379.45 665.25C322.58 665.25 275.78 630.43 248.43 583.89C305.42 610.71 467.76 666.28 526.62 464.59C528.17 471.01 528.98 478.19 528.98 486.21Z" />
				<path id="&lt;Path&gt;" class="shp4" d="M253.89 457.52C241.97 476.96 250.4 504.62 270.87 515.48C292.51 526.96 321.95 516.67 329.99 493.85C337.63 472.18 322.91 447.89 301.81 441.07C284.89 435.61 263.8 441.36 253.89 457.52Z" />
			</g>
			<g id="&lt;Group&gt;">
				<path id="&lt;Path&gt;" class="shp0" d="M190.63 433.92C208.9 442.63 200.72 464.38 180.07 491.45C155.41 523.78 86.06 561.94 42.32 540.9C42.31 540.9 42.31 540.9 42.31 540.9C38.32 538.98 34.56 536.58 31.06 533.64C-10.93 498.33 143.54 429.74 166.33 429.8C177.12 429.83 185.09 431.28 190.63 433.92Z" />
				<path id="&lt;Path&gt;" class="shp1" d="M190.63 433.92C208.9 442.63 200.72 464.38 180.07 491.45C155.41 523.78 86.06 561.94 42.32 540.9C85.61 533.96 157.78 510.8 190.63 433.92Z" />
				<path id="&lt;Path&gt;" class="shp4" d="M60.61 489.97C71.82 483.53 91.36 474.64 93.85 478.33C96.4 482.1 81.25 499.11 62.5 508.77C49.7 515.36 32.86 519.75 30.97 516.2C28.82 512.19 45.99 498.37 60.61 489.97Z" />
			</g>
			<g id="&lt;Group&gt;">
				<path id="&lt;Path&gt;" class="shp0" d="M553.49 461.52C557.96 481.27 580.98 478.07 611.93 463.88C648.89 446.93 701.37 387.67 690.47 340.38C690.47 340.37 690.47 340.37 690.47 340.37C689.47 336.06 687.96 331.86 685.86 327.79C660.66 279.07 559.76 414.67 554.81 436.91C552.47 447.45 552.13 455.54 553.49 461.52Z" />
				<path id="&lt;Path&gt;" class="shp1" d="M553.49 461.52C557.96 481.27 580.98 478.07 611.93 463.88C648.89 446.93 701.37 387.67 690.47 340.38C674.18 381.08 635.71 446.39 553.49 461.52Z" />
				<path id="&lt;Path&gt;" class="shp4" d="M636.76 347.02C628.01 356.54 615.04 373.64 618.09 376.89C621.21 380.2 641.13 369.16 654.68 352.99C663.93 341.96 671.91 326.5 668.87 323.87C665.43 320.9 648.17 334.61 636.76 347.02Z" />
			</g>
			<path id="&lt;Path&gt;" class="shp3" d="M309.89 282.64C315.14 285.47 320.44 287.99 325.83 290.23C331.21 292.47 336.64 294.47 342.14 296.13C353.12 299.47 364.37 301.47 375.63 301.76C381.26 301.87 386.88 301.52 392.47 300.79C398.06 300.01 403.56 298.68 409.04 297.1C419.91 293.68 430.38 288.61 440.72 282.64C432.69 291.47 422.65 298.62 411.45 303.6C405.8 305.96 399.91 307.85 393.85 309.04C392.34 309.35 390.81 309.52 389.28 309.76C387.76 310.02 386.22 310.15 384.68 310.27C381.61 310.57 378.52 310.56 375.43 310.57C363.08 310.26 350.92 307.4 339.76 302.62C334.18 300.21 328.83 297.34 323.79 294.03C321.28 292.36 318.83 290.62 316.51 288.71C314.19 286.82 311.92 284.85 309.89 282.64Z" />
			<g id="&lt;Group&gt;">
				<path id="&lt;Path&gt;" class="shp9" d="M748.68 398.24L748.68 398.24C743.16 407.82 730.92 411.1 721.35 405.57L555.56 309.85C545.99 304.33 542.71 292.09 548.24 282.52C553.77 272.95 566 269.67 575.57 275.19L741.36 370.91C750.93 376.44 754.21 388.67 748.68 398.24Z" />
				<path id="&lt;Path&gt;" class="shp3" d="M593.21 209.42C593.21 279.87 536.09 336.99 465.63 336.99C406.57 336.99 356.87 296.83 342.37 242.33C339.57 231.83 338.07 220.8 338.07 209.42C338.07 138.96 395.18 81.84 465.63 81.84C509.75 81.84 548.63 104.24 571.55 138.28C585.23 158.6 593.21 183.07 593.21 209.42Z" />
				<path id="&lt;Path&gt;" class="shp2" d="M577.22 137.52C569.03 151.47 559.39 163.61 548.72 174.18C501.92 220.56 435.51 236.6 386.76 241.79C369.09 243.69 353.74 244.14 342.47 244.09C339.6 233.34 338.07 222.04 338.07 210.38C338.07 138.21 396.57 79.71 468.73 79.71C513.93 79.71 553.75 102.65 577.22 137.52Z" />
				<path id="&lt;Path&gt;" class="shp0" d="M388.7 274.8C435.08 287.74 485.15 287.74 538.91 274.8C500.42 324.58 450.35 324.58 388.7 274.8Z" />
				<path id="&lt;Compound Path&gt;" fill-rule="evenodd" class="shp10" d="M600.04 209.42C600.04 283.65 539.86 343.83 465.63 343.83C403.4 343.83 351.05 301.51 335.76 244.09C332.81 233.03 331.24 221.41 331.24 209.42C331.24 135.19 391.4 75.01 465.63 75.01C512.12 75.01 553.08 98.61 577.22 134.47C591.64 155.88 600.04 181.66 600.04 209.42ZM555.94 209.42C555.94 196.15 553.07 183.54 547.9 172.18C533.7 140.91 502.16 119.11 465.63 119.11C415.84 119.11 375.34 159.62 375.34 209.42C375.34 220.8 377.46 231.68 381.31 241.73C394.33 275.61 427.22 299.73 465.63 299.73C515.43 299.73 555.94 259.21 555.94 209.42Z" />
			</g>
			<g id="&lt;Group&gt;">
				<g id="&lt;Group&gt;">
					<path id="&lt;Path&gt;" class="shp5" d="M523.08 209.41C523.08 241.13 497.36 266.84 465.65 266.84C441.13 266.84 420.21 251.51 411.96 229.9C409.54 223.54 408.2 216.63 408.2 209.41C408.2 177.7 433.91 151.98 465.65 151.98C489 151.98 509.08 165.92 518.03 185.92C521.28 193.1 523.08 201.05 523.08 209.41Z" />
					<path id="&lt;Compound Path&gt;" fill-rule="evenodd" class="shp6" d="M526.98 181.88C530.9 190.56 532.89 199.82 532.89 209.41C532.89 246.49 502.73 276.66 465.65 276.66C437.92 276.66 412.66 259.27 402.79 233.39C399.87 225.72 398.38 217.66 398.38 209.41C398.38 172.34 428.56 142.17 465.65 142.17C492.1 142.17 516.18 157.77 526.98 181.88ZM408.2 209.41C408.2 216.63 409.54 223.54 411.96 229.9C420.21 251.51 441.13 266.84 465.65 266.84C497.36 266.84 523.08 241.13 523.08 209.41C523.08 201.05 521.28 193.1 518.03 185.92C509.08 165.92 489 151.98 465.65 151.98C433.91 151.98 408.2 177.7 408.2 209.41Z" />
				</g>
				<path id="&lt;Path&gt;" class="shp7" d="M517.98 185.81C496.54 237.64 443.36 236.09 412.09 230.07C409.64 223.71 408.28 216.81 408.25 209.6C408.15 177.88 433.77 152.08 465.51 151.98C488.86 151.9 508.96 165.83 517.98 185.81Z" />
				<path id="&lt;Path&gt;" class="shp4" d="M463.13 190.35C463.13 200.88 454.6 209.41 444.07 209.41C433.54 209.41 425 200.88 425 190.35C425 179.82 433.54 171.28 444.07 171.28C454.6 171.28 463.13 179.82 463.13 190.35Z" />
				<path id="&lt;Path&gt;" class="shp4" d="M510.68 220.56C513.8 222.66 509.55 242.67 495.34 250.32C482.71 257.12 465.97 252.14 465.58 248.46C465.3 245.75 473.97 245.01 488.48 236.23C503.74 226.98 508.51 219.1 510.68 220.56Z" />
			</g>
			<path id="&lt;Path&gt;" class="shp0" d="M645.49 315.56C642.16 349.95 659.41 359.91 697.23 345.43C697.58 314.82 680.33 304.87 645.49 315.56Z" />
			<path id="&lt;Path&gt;" class="shp4" d="M671.3 330.18C674.18 335.3 676.41 343.8 673.31 346.11C669.28 349.11 655.41 342.19 652.78 331.55C651.71 327.23 652.14 320.87 655.39 319.23C659.64 317.08 667.56 323.52 671.3 330.18Z" />
			<path id="&lt;Path&gt;" class="shp11" d="M349.79 232.51C347.23 232.51 345.04 230.57 344.78 227.97C344.76 227.73 344.72 227.39 344.67 226.97C339.56 183.28 353.21 143.47 382.11 117.77C420.74 83.43 466.98 85.22 480.23 86.58C483 86.87 485.01 89.34 484.73 92.11C484.44 94.88 481.96 96.9 479.2 96.61C466.98 95.35 424.36 93.7 388.81 125.31C352.65 157.46 351.9 202.07 354.68 225.8C354.74 226.3 354.78 226.69 354.81 226.97C355.09 229.74 353.06 232.21 350.29 232.48C350.13 232.5 349.96 232.51 349.79 232.51Z" />
			<path id="&lt;Path&gt;" class="shp11" d="M535.9 298.82C534.56 298.82 533.22 298.29 532.23 297.24C530.32 295.22 530.41 292.03 532.43 290.12C560.75 263.37 573.46 225.67 566.44 189.25C565.91 186.52 567.7 183.88 570.44 183.35C573.17 182.83 575.81 184.61 576.34 187.35C584.01 227.16 570.19 268.32 539.36 297.44C538.38 298.36 537.14 298.82 535.9 298.82Z" />
			<path id="&lt;Path&gt;" class="shp11" d="M465.47 319.85C455.88 319.85 446.94 318.76 439.6 317.07C436.88 316.45 435.19 313.74 435.81 311.03C436.43 308.32 439.14 306.62 441.85 307.25C461.89 311.85 491.45 310.8 512.32 298.09C514.7 296.64 517.8 297.4 519.25 299.78C520.69 302.15 519.94 305.26 517.56 306.7C501.63 316.4 482.52 319.85 465.47 319.85Z" />
			<path id="&lt;Path&gt;" class="shp12" d="M632.24 327.87C631.47 327.87 630.69 327.67 629.98 327.25L581.45 298.2C579.36 296.95 578.68 294.25 579.93 292.16C581.18 290.07 583.88 289.38 585.97 290.64L634.51 319.68C636.6 320.93 637.28 323.64 636.03 325.73C635.2 327.11 633.74 327.87 632.24 327.87Z" />
			<path id="&lt;Path&gt;" class="shp12" d="M738.27 388.08C737.58 388.08 736.87 387.92 736.22 387.57L689.87 363.07C687.71 361.94 686.89 359.27 688.03 357.11C689.17 354.96 691.84 354.14 693.99 355.28L740.34 379.77C742.49 380.91 743.31 383.58 742.17 385.73C741.38 387.23 739.85 388.08 738.27 388.08Z" />
			<path id="&lt;Path&gt;" class="shp13" d="M543.75 744.28C543.75 767.11 472.38 785.61 384.33 785.61C296.29 785.61 224.91 767.11 224.91 744.28C224.91 721.45 296.29 702.95 384.33 702.95C472.38 702.95 543.75 721.45 543.75 744.28Z" />
		</g>
	</g>
</svg>